<?xml version="1.0" standalone="no"?>
<!DOCTYPE svg PUBLIC "-//W3C//DTD SVG 20010904//EN"
 "http://www.w3.org/TR/2001/REC-SVG-20010904/DTD/svg10.dtd">
<svg version="1.0" xmlns="http://www.w3.org/2000/svg"
 width="500.000000pt" height="500.000000pt" viewBox="0 0 500.000000 500.000000"
 preserveAspectRatio="xMidYMid meet">
<metadata>
Created by potrace 1.14, written by Peter Selinger 2001-2017
</metadata>
<g transform="translate(0.000000,500.000000) scale(0.100000,-0.100000)"
fill="#000000" stroke="none">
<path d="M2298 4835 c-2 -2 -33 -6 -71 -9 -37 -4 -73 -9 -80 -11 -6 -2 -28 -6
-47 -9 -194 -28 -442 -110 -650 -215 -728 -368 -1199 -1059 -1285 -1886 -8
-71 -8 -326 -1 -406 34 -362 137 -681 325 -998 224 -377 568 -698 961 -896
202 -102 493 -195 690 -220 30 -4 63 -9 73 -11 117 -21 400 -21 567 0 298 39
551 117 798 246 437 229 798 595 1016 1028 133 264 211 537 242 841 8 81 8
333 0 397 -3 27 -8 74 -11 104 -18 165 -83 411 -158 595 -270 664 -850 1180
-1539 1369 -213 58 -345 76 -601 80 -124 2 -227 3 -229 1z"/>
</g>
</svg>
